<svg width="54" height="41" viewBox="0 0 54 41" fill="none" xmlns="http://www.w3.org/2000/svg">
<path fill-rule="evenodd" clip-rule="evenodd" d="M18.9892 0L34.085 0.000349338C46.4841 0.000349338 54.0001 8.04137 54 18.3864C54 27.5266 47.2997 33.4885 37.9389 36.856C33.9296 38.2984 29.884 39.6516 25.8379 41V32.8324C23.8366 34.1945 21.81 35.0217 18.9892 35.4212C15.38 35.9324 11.5118 35.2171 7.75522 32.8347C2.3236 28.88 0 23.4585 0 18.501C0 7.78676 8.2899 0 18.9892 0ZM25.8944 28.9297C28.9303 27.8829 32.016 26.9608 35.0205 25.8265C40.3028 23.8322 42.8935 21.8396 42.8935 18.2613C42.8935 16.0561 41.6277 11.3558 35.8084 11.3558L18.1588 11.3555C14.8167 11.3555 13.5392 12.467 12.3256 14.2167C9.95359 17.6366 11.2021 21.617 14.1223 23.6784C15.6222 24.7371 17.3115 25.0244 18.9892 24.6586C20.5779 24.3122 22.1561 23.3801 23.5532 21.9629C24.5984 20.9025 25.3061 20.1868 25.8944 19.5943V28.9297Z" fill="white"/>
</svg>
