<svg width="48" height="48" viewBox="0 0 48 48" fill="none" xmlns="http://www.w3.org/2000/svg">
<path fill-rule="evenodd" clip-rule="evenodd" d="M24 47C36.7025 47 47 36.7025 47 24C47 11.2975 36.7025 1 24 1C11.2975 1 1 11.2975 1 24C1 36.7025 11.2975 47 24 47ZM24 48C37.2548 48 48 37.2548 48 24C48 10.7452 37.2548 0 24 0C10.7452 0 0 10.7452 0 24C0 37.2548 10.7452 48 24 48Z" fill="#1AB3D5"/>
<path fill-rule="evenodd" clip-rule="evenodd" d="M24 28.3243L13.3363 18.63L12.6637 19.37L24 29.6757L35.3363 19.37L34.6637 18.63L24 28.3243Z" fill="#1AB3D5"/>
</svg>
