<svg width="201" height="169" viewBox="0 0 201 169" fill="none" xmlns="http://www.w3.org/2000/svg">
<path d="M0 78.9425L14.3043 67.7862L14.3043 77.8863C14.3043 85.6886 20.6197 92.0136 28.4101 92.0136H100.802V106.407H28.4101C14.7856 106.407 3.39567 96.825 0.592969 84.0224L0.586234 83.9917C0.387791 83.0855 0 81.3147 0 78.9425Z" fill="white"/>
<path d="M100.803 123V106.553C105.56 104.432 109.842 102.655 114.73 100.628L114.732 100.627C117.502 99.4775 120.466 98.2479 123.821 96.8292C135.399 91.9331 146.879 91.808 154.301 91.808H172.522C180.313 91.808 186.628 85.483 186.628 77.6808V63H201V77.6808C201 93.4325 188.25 106.202 172.522 106.202H150.208C143.011 106.364 138.171 106.784 130.996 109.798C123.821 112.812 114.755 116.767 100.803 123Z" fill="white"/>
</svg>
