<svg width="277" height="215" viewBox="0 0 277 215" fill="none" xmlns="http://www.w3.org/2000/svg">
<path fill-rule="evenodd" clip-rule="evenodd" d="M98.3409 0.945312L174.587 0.946408C238.254 0.946408 276.848 42.2472 276.847 95.382C276.847 142.328 243.5 169.817 194.376 190.043C150.353 208.169 150.061 208.282 137.434 213.192L137.428 213.194L134.107 214.486V172.373C127.618 175.009 119.508 177.923 110.237 180.463C106.561 181.47 102.63 182.27 98.3409 182.878C79.808 185.503 59.9453 181.829 40.6562 169.593C12.7657 149.281 0.834473 121.434 0.834473 95.9711C0.834473 40.9401 43.4017 0.945312 98.3409 0.945312ZM134.143 153.951C148.455 148.024 171.344 138.556 185.248 132.847C189.295 131.185 192.983 129.263 196.313 127.468C200.184 125.381 203.573 123.191 206.482 120.865C215.405 113.731 219.818 105.324 219.818 94.7393C219.818 83.4129 213.317 59.2711 183.437 59.2711L94.0764 59.27C76.9157 59.27 70.356 64.979 64.1243 73.9661C51.9444 91.5313 58.3551 111.976 73.3499 122.564C77.9821 125.834 82.9662 127.672 88.0776 128.208C100.511 129.512 120.131 122.747 134.143 116.973V153.951Z" fill="white"/>
</svg>
