<svg width="315" height="414" viewBox="0 0 315 414" fill="none" xmlns="http://www.w3.org/2000/svg">
<path d="M314.019 0.164062H0.0185547V71.7826H22.3879V22.5708H291.649V59.3791L314.019 41.6634V0.164062Z" fill="white"/>
<path d="M0.124165 344.58L22.3881 327.213L22.3881 342.936C22.3881 355.081 32.2178 364.928 44.3433 364.928H157.019V387.334H44.3433C23.1373 387.334 5.40938 372.417 1.0471 352.488L1.03661 352.44C0.727745 351.029 0.124165 348.273 0.124165 344.58Z" fill="white"/>
<path d="M157.019 413.164V387.561C164.423 384.259 171.089 381.493 178.696 378.337L178.7 378.335C183.011 376.547 187.624 374.633 192.846 372.424C210.867 364.802 228.735 364.608 240.287 364.608H268.647C280.773 364.608 290.603 354.761 290.603 342.616V319.762H312.972V342.616C312.972 367.136 293.127 387.014 268.647 387.014H233.916C222.715 387.267 215.181 387.92 204.014 392.612C192.846 397.304 178.735 403.46 157.019 413.164Z" fill="white"/>
<path d="M175.659 178.805L175.582 178.87V88.4136H197.723V133.458L258.26 85.5919L258.197 174.721H236.057V132.21L175.659 179.965V178.805Z" fill="white"/>
<path d="M175.742 228.248V202.688H258.426V228.248H229.263V297.626H207.065V228.248H175.742Z" fill="white"/>
<path d="M54.5279 297.643L54.4504 297.709V207.252H76.5909V252.297L137.129 204.431L137.066 297.709H114.925L114.925 251.049L54.5279 298.804V297.643Z" fill="white"/>
<path fill-rule="evenodd" clip-rule="evenodd" d="M76.0797 89.13L110.064 89.1304C138.441 89.1304 155.642 107.539 155.642 131.221C155.642 152.146 140.779 164.398 118.884 173.413C99.2621 181.492 99.1321 181.542 93.5039 183.731L93.5013 183.732L92.0211 184.308V165.537C89.1288 166.712 85.5142 168.011 81.382 169.143C79.7435 169.592 77.9913 169.949 76.0797 170.219C67.8194 171.39 58.9663 169.752 50.3689 164.298C37.9378 155.245 32.6199 142.833 32.6199 131.484C32.6199 106.956 51.5926 89.13 76.0797 89.13ZM92.0369 157.326C98.4164 154.685 108.618 150.464 114.815 147.92C116.619 147.18 118.263 146.323 119.747 145.523C121.473 144.592 122.983 143.616 124.279 142.579C128.257 139.4 130.223 135.653 130.223 130.935C130.223 125.887 127.326 115.126 114.008 115.126L74.179 115.126C66.5302 115.126 63.6065 117.671 60.8289 121.676C55.4002 129.505 58.2576 138.618 64.9409 143.337C67.0056 144.794 69.227 145.613 71.5052 145.852C77.0469 146.434 85.7919 143.418 92.0369 140.845V157.326Z" fill="white"/>
</svg>
