<svg width="314" height="95" viewBox="0 0 314 95" fill="none" xmlns="http://www.w3.org/2000/svg">
<path d="M0.608398 25.7395L22.8724 8.37253L22.8724 24.0954C22.8724 36.2411 32.7021 46.0872 44.8275 46.0872H157.503V68.4939H44.8275C23.6215 68.4939 5.89362 53.5771 1.53133 33.6474L1.52085 33.5995C1.21198 32.1889 0.608398 29.4323 0.608398 25.7395Z" fill="white"/>
<path d="M157.503 94.3237V68.7205C164.908 65.4186 171.573 62.6531 179.18 59.4967L179.184 59.495C183.495 57.7064 188.108 55.7921 193.33 53.5837C211.351 45.9619 229.22 45.7672 240.771 45.7672H269.132C281.257 45.7672 291.087 35.9211 291.087 23.7754V0.921875H313.456V23.7754C313.456 48.296 293.611 68.1739 269.132 68.1739H234.401C223.199 68.4267 215.666 69.0796 204.498 73.7716C193.33 78.4636 179.219 84.62 157.503 94.3237Z" fill="white"/>
</svg>
