<svg width="314" height="413" viewBox="0 0 314 413" fill="none" xmlns="http://www.w3.org/2000/svg">
<path d="M314 0H0V71.6186H22.3694V22.4067H291.631V59.215L314 41.4993V0Z" fill="#1AB3D5"/>
<path d="M0.105611 344.416L22.3696 327.049L22.3696 342.772C22.3696 354.917 32.1993 364.763 44.3248 364.763H157V387.17H44.3248C23.1187 387.17 5.39083 372.253 1.02854 352.324L1.01806 352.276C0.70919 350.865 0.105611 348.109 0.105611 344.416Z" fill="#1AB3D5"/>
<path d="M157 413V387.397C164.405 384.095 171.07 381.329 178.677 378.173L178.681 378.171C182.992 376.383 187.605 374.468 192.827 372.26C210.849 364.638 228.717 364.443 240.268 364.443H268.629C280.754 364.443 290.584 354.597 290.584 342.452V319.598H312.953V342.452C312.953 366.972 293.109 386.85 268.629 386.85H233.898C222.696 387.103 215.163 387.756 203.995 392.448C192.827 397.14 178.717 403.296 157 413Z" fill="#1AB3D5"/>
<path d="M175.641 178.641L175.564 178.706V88.2495H197.704V133.294L258.242 85.4279L258.179 174.557H236.038V132.046L175.641 179.801V178.641Z" fill="#1AB3D5"/>
<path d="M175.724 228.084V202.524H258.408V228.084H229.244V297.462H207.046V228.084H175.724Z" fill="#1AB3D5"/>
<path d="M54.5094 297.479L54.4319 297.545V207.088H76.5723V252.133L137.11 204.267L137.047 297.545H114.907L114.907 250.885L54.5094 298.64V297.479Z" fill="#1AB3D5"/>
<path fill-rule="evenodd" clip-rule="evenodd" d="M76.0611 88.9659L110.045 88.9664C138.422 88.9664 155.624 107.375 155.624 131.057C155.624 151.982 140.76 164.234 118.865 173.249C99.2435 181.328 99.1136 181.378 93.4853 183.567L93.4828 183.568L92.0025 184.144V165.373C89.1102 166.548 85.4956 167.847 81.3635 168.979C79.7249 169.428 77.9727 169.784 76.0611 170.055C67.8008 171.226 58.9478 169.588 50.3504 164.134C37.9193 155.081 32.6014 142.669 32.6014 131.32C32.6014 106.792 51.5741 88.9659 76.0611 88.9659ZM92.0184 157.162C98.3978 154.521 108.599 150.3 114.797 147.756C116.601 147.015 118.244 146.159 119.728 145.358C121.454 144.428 122.964 143.452 124.261 142.415C128.238 139.236 130.205 135.489 130.205 130.771C130.205 125.723 127.308 114.962 113.989 114.962L74.1604 114.962C66.5117 114.962 63.588 117.506 60.8104 121.512C55.3817 129.341 58.239 138.453 64.9224 143.173C66.987 144.63 69.2085 145.449 71.4867 145.688C77.0284 146.27 85.7733 143.254 92.0184 140.681V157.162Z" fill="#1AB3D5"/>
</svg>
