<svg width="51" height="39" viewBox="0 0 51 39" fill="none" xmlns="http://www.w3.org/2000/svg">
<path d="M18.0242 25.0466C15.5867 34.3365 13.0804 38.9989 2.79805 38.9989C1.87109 38.9989 0.926961 38.9288 0 38.8938L2.00841 31.234C2.28307 31.3216 2.57489 31.3392 2.90104 31.3392C6.16257 31.3392 6.84921 28.2016 7.55301 25.5549L11.5527 10.4282H21.8522L18.0242 25.0466ZM37.4389 9.90234C33.2676 9.90234 28.2551 10.3931 24.5645 12.5316L21.5604 23.9248C23.8435 25.5198 27.1565 26.2736 29.8687 26.887C31.0875 27.15 37.3359 28.114 37.3359 29.8142C37.3359 31.7949 33.3363 32.3383 31.551 32.3383C30.0232 32.3383 27.1908 31.7423 27.0878 29.7091H20.0498L18.4019 36.0192C21.0454 38.6484 26.3497 38.9989 29.8001 38.9989C36.409 38.9989 47.9616 36.9306 47.9616 27.9212C47.9616 19.9459 30.2979 20.2264 30.2979 17.5972C30.2979 15.8268 34.8297 15.6866 35.9111 15.6866C37.8337 15.6866 39.4473 15.7392 40.6146 17.4394H50.9142C50.9828 17.1765 51 16.896 51 16.6331C51 10.5859 41.4901 9.90234 37.4389 9.90234Z" fill="white"/>
<path d="M34.9351 0H29.7853L28.8654 3.50561H34.0151L34.9351 0ZM24.6355 0H14.3359L12.4961 7.01123H27.9454L28.8654 3.50561H23.7156L24.6355 0Z" fill="#ED1A3B"/>
</svg>
