<svg width="143" height="43" viewBox="0 0 143 43" fill="none" xmlns="http://www.w3.org/2000/svg">
<path d="M0 11.4255L10.1767 3.43011L10.1767 10.6685C10.1767 16.2602 14.6697 20.793 20.2122 20.793H71.7152V31.1086H20.2122C10.5191 31.1086 2.41583 24.2412 0.421863 15.066L0.417072 15.044C0.275891 14.3946 0 13.1255 0 11.4255Z" fill="#FE25A7"/>
<path d="M71.7152 43V31.2129C75.0998 29.6928 78.1464 28.4196 81.6236 26.9665L81.6254 26.9657C83.5958 26.1422 85.7045 25.261 88.0914 24.2443C96.3288 20.7354 104.496 20.6457 109.776 20.6457H122.74C128.282 20.6457 132.775 16.1128 132.775 10.5212V0H143V10.5212C143 21.8099 133.929 30.9612 122.74 30.9612H106.864C101.744 31.0776 98.3008 31.3782 93.1961 33.5383C88.0914 35.6984 81.6415 38.5327 71.7152 43Z" fill="#FE25A7"/>
</svg>
