<svg width="46" height="51" viewBox="0 0 46 51" fill="none" xmlns="http://www.w3.org/2000/svg">
<path d="M0 6.80723V0.00184114L46 0V6.80496L0 6.80723Z" fill="#FE25A7"/>
<path d="M0 24.1239V17.4833L46 17.4815V24.122L0 24.1239Z" fill="#FE25A7"/>
<path d="M0 43.1531V36.3429C0.122794 36.3495 0.246469 36.3529 0.370938 36.3529L20.3352 36.3501V43.1552L0.370938 43.1581C0.246894 43.1581 0.123241 43.1564 0 43.1531Z" fill="#FE25A7"/>
<path d="M46 36.1848V43.0246C45.6832 43.0468 45.3634 43.058 45.041 43.058H43.7742C40.3598 43.1348 38.0636 43.3331 34.6596 44.7581C31.2555 46.1831 26.9545 48.0529 20.3352 51V43.224C22.5918 42.2214 24.6231 41.3816 26.9414 40.4231L26.9425 40.4227L26.9437 40.4221C28.2577 39.8789 29.6639 39.2976 31.2555 38.6268C36.7486 36.312 41.5201 36.2529 45.041 36.2529C45.3666 36.2529 45.6868 36.2297 46 36.1848Z" fill="#FE25A7"/>
</svg>
